<svg width="38" height="18" viewBox="0 0 38 18" fill="none" xmlns="http://www.w3.org/2000/svg">
<g clip-path="url(#clip0_256_127)">
<path fill-rule="evenodd" clip-rule="evenodd" d="M14.9999 18C14.2439 18.0007 13.5521 17.5751 13.2119 16.9L9.61186 9.71699L7.56486 12.268C7.18349 12.7412 6.60763 13.0153 5.99986 13.013H1.99986C0.898604 13.013 0.00585938 12.1202 0.00585938 11.019C0.00585938 9.91773 0.898604 9.02499 1.99986 9.02499H5.03886L8.43886 4.78799C8.86476 4.25513 9.53288 3.9761 10.2113 4.04776C10.8896 4.11942 11.4847 4.5319 11.7899 5.14199L14.4899 10.528L17.0779 1.49799C17.3095 0.689523 18.0222 0.112335 18.8611 0.0537202C19.7001 -0.00489451 20.486 0.467587 20.8279 1.23599L24.3009 9.02599H26.9999C28.1011 9.02599 28.9939 9.91873 28.9939 11.02C28.9939 12.1212 28.1011 13.014 26.9999 13.014H22.9999C22.2106 13.0144 21.4949 12.5506 21.1729 11.83L19.4099 7.87399L16.9229 16.552C16.6947 17.3428 16.0054 17.913 15.1859 17.989C15.1229 18 15.0609 18 14.9999 18Z" fill="#DFDFDF"/>
<path fill-rule="evenodd" clip-rule="evenodd" d="M32 17C28.6863 17 26 14.3137 26 11C26 7.68629 28.6863 5 32 5C35.3137 5 38 7.68629 38 11C38 14.3137 35.3137 17 32 17ZM32 8.283C30.4984 8.28742 29.2845 9.50776 29.288 11.0093C29.2915 12.5109 30.5111 13.7256 32.0127 13.723C33.5142 13.7204 34.7297 12.5016 34.728 11C34.7241 9.49675 33.5033 8.28079 32 8.283Z" fill="#595959"/>
</g>
<defs>
<clipPath id="clip0_256_127">
<rect width="38" height="18" fill="white"/>
</clipPath>
</defs>
</svg>
