<svg width="28" height="35" viewBox="0 0 28 35" fill="none" xmlns="http://www.w3.org/2000/svg">
<g clip-path="url(#clip0_256_208)">
<path fill-rule="evenodd" clip-rule="evenodd" d="M3.394 9H24.606L28 35H0L3.394 9Z" fill="#DFDFDF"/>
<path fill-rule="evenodd" clip-rule="evenodd" d="M0 35L0.522 31H27.478L28 35H0ZM18 8C18 6.484 17.263 3 14 3C10.737 3 10 6.484 10 8V9H7L7.01 6.049C7.01 3.017 10.053 0 14 0C17.947 0 20.99 3.017 20.99 6.049L21 9H18V8Z" fill="#595959"/>
<path fill-rule="evenodd" clip-rule="evenodd" d="M7 9L7.009 11H10.009V9H7ZM17.989 9V10.989H20.989L21 9H17.991H17.989Z" fill="#FAFAFA"/>
</g>
<defs>
<clipPath id="clip0_256_208">
<rect width="28" height="35" fill="white"/>
</clipPath>
</defs>
</svg>
