<svg width="33" height="35" viewBox="0 0 33 35" fill="none" xmlns="http://www.w3.org/2000/svg">
<g clip-path="url(#clip0_256_251)">
<path fill-rule="evenodd" clip-rule="evenodd" d="M33 35H0V0H17V10.99H33V35Z" fill="#DFDFDF"/>
<path fill-rule="evenodd" clip-rule="evenodd" d="M27.0121 31.9998V29.0098H30.0121V31.9998H27.0121ZM27.0121 23.9898H30.0121V27.0078H27.0121V23.9898ZM27.0121 18.9978H30.0121V21.9868H27.0121V18.9998V18.9978ZM27.0121 14.0048H30.0121V16.9998H27.0121V14.0098V14.0048ZM22.0121 29.0098H25.0121V31.9998H22.0121V29.0098ZM22.0121 23.9888H25.0121V27.0068H22.0121V23.9888ZM22.0121 18.9968H25.0121V21.9858H22.0121V18.9998V18.9968ZM22.0121 14.0038H25.0121V16.9998H22.0121V14.0098V14.0038ZM17.0001 10.9998H19.0001V34.9998H17.0001V10.9998ZM3.99414 29.9998H13.0061V32.0148H3.99414V29.9998ZM3.99414 24.9998H13.0061V27.0148H3.99414V24.9938V24.9998ZM3.99414 19.9998H13.0061V22.0148H3.99414V19.9918V19.9998ZM3.99414 14.9998H13.0061V17.0148H3.99414V14.9908V14.9998ZM3.99414 9.99982H13.0061V11.9998H3.99414V9.98882V9.99982ZM3.99414 4.99982H13.0061V6.99982H3.99414V4.98682V4.99982Z" fill="#595959"/>
</g>
<defs>
<clipPath id="clip0_256_251">
<rect width="33" height="35" fill="white"/>
</clipPath>
</defs>
</svg>
