<svg width="35" height="33" viewBox="0 0 35 33" fill="none" xmlns="http://www.w3.org/2000/svg">
<g clip-path="url(#clip0_256_268)">
<path fill-rule="evenodd" clip-rule="evenodd" d="M4.24805 24.648L5.60705 32.014L11.945 32L10 24L4.24805 24.648ZM11 24L8.00005 14L26.518 0L33 27L11 24Z" fill="#DFDFDF"/>
<path fill-rule="evenodd" clip-rule="evenodd" d="M14.0002 9L21.0002 4L26.0002 26L18.0002 25L14.0002 9ZM1.00016 22C0.367162 19.459 1.63816 16.681 4.00016 16L8.00016 14L11.0002 24L7.00016 25C4.63816 25.681 1.63316 24.542 1.00016 22ZM30.8202 17.917L28.5002 8.255C28.984 8.09313 29.49 8.00711 30.0002 8C32.5996 7.99746 34.7659 9.99008 34.9801 12.5806C35.1943 15.1712 33.3847 17.4926 30.8202 17.917Z" fill="#595959"/>
</g>
<defs>
<clipPath id="clip0_256_268">
<rect width="35" height="33" fill="white"/>
</clipPath>
</defs>
</svg>
