<svg width="27" height="38" viewBox="0 0 27 38" fill="none" xmlns="http://www.w3.org/2000/svg">
<g clip-path="url(#clip0_256_276)">
<path fill-rule="evenodd" clip-rule="evenodd" d="M27 38H0V0H27V38Z" fill="#DFDFDF"/>
<path fill-rule="evenodd" clip-rule="evenodd" d="M4 4H23V11H4V4ZM6.5 15C7.88071 15 9 16.1193 9 17.5C9 18.8807 7.88071 20 6.5 20C5.11929 20 4 18.8807 4 17.5C4 16.1193 5.11929 15 6.5 15ZM13.5 15C14.8807 15 16 16.1193 16 17.5C16 18.8807 14.8807 20 13.5 20C12.1193 20 11 18.8807 11 17.5C11 16.1193 12.1193 15 13.5 15ZM20.5 15C21.8807 15 23 16.1193 23 17.5C23 18.8807 21.8807 20 20.5 20C19.1193 20 18 18.8807 18 17.5C18 16.1193 19.1193 15 20.5 15ZM6.5 22C7.88071 22 9 23.1193 9 24.5C9 25.8807 7.88071 27 6.5 27C5.11929 27 4 25.8807 4 24.5C4 23.1193 5.11929 22 6.5 22ZM13.5 22C14.8807 22 16 23.1193 16 24.5C16 25.8807 14.8807 27 13.5 27C12.1193 27 11 25.8807 11 24.5C11 23.1193 12.1193 22 13.5 22ZM20.5 22C21.8807 22 23 23.1193 23 24.5C23 25.8807 21.8807 27 20.5 27C19.1193 27 18 25.8807 18 24.5C18 23.1193 19.1193 22 20.5 22ZM6.5 29C7.88071 29 9 30.1193 9 31.5C9 32.8807 7.88071 34 6.5 34C5.11929 34 4 32.8807 4 31.5C4 30.1193 5.11929 29 6.5 29ZM13.5 29C14.8807 29 16 30.1193 16 31.5C16 32.8807 14.8807 34 13.5 34C12.1193 34 11 32.8807 11 31.5C11 30.1193 12.1193 29 13.5 29ZM20.5 29C21.8807 29 23 30.1193 23 31.5C23 32.8807 21.8807 34 20.5 34C19.1193 34 18 32.8807 18 31.5C18 30.1193 19.1193 29 20.5 29Z" fill="#595959"/>
</g>
<defs>
<clipPath id="clip0_256_276">
<rect width="27" height="38" fill="white"/>
</clipPath>
</defs>
</svg>
