<svg width="35" height="37" viewBox="0 0 35 37" fill="none" xmlns="http://www.w3.org/2000/svg">
<g clip-path="url(#clip0_256_284)">
<path fill-rule="evenodd" clip-rule="evenodd" d="M0 36.9998V3.00879H35V36.9998H0Z" fill="#DFDFDF"/>
<path fill-rule="evenodd" clip-rule="evenodd" d="M3.007 13.013H7.991V18H3.007V13.013ZM10.998 13.013H16.012V18H11V13.013H10.998ZM18.988 13.013H24V18H18.988V13.013ZM3.007 21.013H7.991V26H3.007V21.009V21.013ZM10.998 21.013H16.012V26H11V21.009L10.998 21.013ZM18.988 21.013H24V26H18.988V21.009V21.013ZM3.007 29H7.991V33.987H3.007V29ZM11 29H16.014V33.987H11V29ZM18.99 29H24V33.987H18.988V29H18.99ZM27.011 13.009H31.994V18H27.009V13.013L27.011 13.009ZM27.011 21.009H31.994V26H27.009V21.009H27.011ZM27.011 29.009H31.994V33.996H27.009V29L27.011 29.009ZM0 3H35V10H0V3Z" fill="#595959"/>
<path fill-rule="evenodd" clip-rule="evenodd" d="M8 0H12V6H8V0ZM23 0H27V6H23V0Z" fill="#DFDFDF"/>
</g>
<defs>
<clipPath id="clip0_256_284">
<rect width="35" height="37" fill="white"/>
</clipPath>
</defs>
</svg>
