<svg width="40" height="36" viewBox="0 0 40 36" fill="none" xmlns="http://www.w3.org/2000/svg">
<g clip-path="url(#clip0_256_309)">
<path fill-rule="evenodd" clip-rule="evenodd" d="M10.58 29.043C12.4949 29.0694 14.0284 30.6385 14.0109 32.5536C13.9933 34.4686 12.4313 36.0093 10.5162 36.0006C8.60113 35.9919 7.05318 34.4371 7.053 32.522C7.05855 31.5927 7.43346 30.7037 8.09508 30.0511C8.7567 29.3985 9.6507 29.0358 10.58 29.043ZM22.351 29.043C24.2638 29.0776 25.7897 30.6503 25.7667 32.5632C25.7438 34.4762 24.1805 36.0117 22.2674 36.0004C20.3543 35.989 18.8093 34.4351 18.809 32.522C18.8266 30.5833 20.4123 29.0258 22.351 29.043ZM40 6H10L5 0H0L14 20H26L24 23H9L5 27H26L40 6Z" fill="#DFDFDF"/>
<path fill-rule="evenodd" clip-rule="evenodd" d="M12 10H32L30 12H14L12 10ZM15 14H28L26 16H17L15 14Z" fill="#595959"/>
</g>
<defs>
<clipPath id="clip0_256_309">
<rect width="40" height="36" fill="white"/>
</clipPath>
</defs>
</svg>
