<svg width="34" height="36" viewBox="0 0 34 36" fill="none" xmlns="http://www.w3.org/2000/svg">
<g clip-path="url(#clip0_256_317)">
<path fill-rule="evenodd" clip-rule="evenodd" d="M17 31.765C13.4557 31.8575 9.95909 30.9327 6.924 29.1L0 36V15.882L0.012 15.888C0.011 15.791 0 15.7 0 15.6C0 6.369 6.247 0 17 0C27.753 0 34 6.652 34 15.882C34 25.112 27.753 31.765 17 31.765Z" fill="#DFDFDF"/>
<path fill-rule="evenodd" clip-rule="evenodd" d="M24.994 12.9902C26.6509 12.9902 27.994 14.3334 27.994 15.9902C27.994 17.6471 26.6509 18.9902 24.994 18.9902C23.3371 18.9902 21.994 17.6471 21.994 15.9902C21.994 14.3334 23.3371 12.9902 24.994 12.9902ZM17 13.0002C18.6569 13.0002 20 14.3434 20 16.0002C20 17.6571 18.6569 19.0002 17 19.0002C15.3431 19.0002 14 17.6571 14 16.0002C14 14.3434 15.3431 13.0002 17 13.0002ZM9 13.0002C10.6569 13.0002 12 14.3434 12 16.0002C12 17.6571 10.6569 19.0002 9 19.0002C7.34315 19.0002 6 17.6571 6 16.0002C6 14.3434 7.34315 13.0002 9 13.0002Z" fill="#595959"/>
</g>
<defs>
<clipPath id="clip0_256_317">
<rect width="34" height="36" fill="white"/>
</clipPath>
</defs>
</svg>
