<svg width="36" height="36" viewBox="0 0 36 36" fill="none" xmlns="http://www.w3.org/2000/svg">
<g clip-path="url(#clip0_256_325)">
<path d="M18 36C27.9411 36 36 27.9411 36 18C36 8.05887 27.9411 0 18 0C8.05887 0 0 8.05887 0 18C0 27.9411 8.05887 36 18 36Z" fill="#DFDFDF"/>
<path d="M18 32C25.732 32 32 25.732 32 18C32 10.268 25.732 4 18 4C10.268 4 4 10.268 4 18C4 25.732 10.268 32 18 32Z" fill="#595959"/>
<path d="M15 10V21H24V18H18V10H15Z" fill="#DFDFDF"/>
</g>
<defs>
<clipPath id="clip0_256_325">
<rect width="36" height="36" fill="white"/>
</clipPath>
</defs>
</svg>
