<svg width="40" height="26" viewBox="0 0 40 26" fill="none" xmlns="http://www.w3.org/2000/svg">
<g clip-path="url(#clip0_256_350)">
<path fill-rule="evenodd" clip-rule="evenodd" d="M33.2201 26H9.49205C4.15504 25.9026 -0.093573 21.4991 5.33195e-05 16.162C5.33195e-05 10.729 3.75805 7 9.00005 7C9.99815 6.91274 11.002 6.91274 12.0001 7C13.6071 3.118 17.0221 0 21.3561 0C27.1601 0 32.0001 3.985 32.0001 10C32.0001 10.411 32.0431 11.6 32.0001 12C32.3314 11.9491 32.6687 11.9491 33.0001 12C36.8452 12.0249 39.9603 15.128 40.0001 18.973C40.0669 22.7852 37.0322 25.9305 33.2201 26Z" fill="#DFDFDF"/>
</g>
<defs>
<clipPath id="clip0_256_350">
<rect width="40" height="26" fill="white"/>
</clipPath>
</defs>
</svg>
