<svg width="36" height="36" viewBox="0 0 36 36" fill="none" xmlns="http://www.w3.org/2000/svg">
<g clip-path="url(#clip0_256_366)">
<path fill-rule="evenodd" clip-rule="evenodd" d="M13.08 6.122L15 0H21L22.92 6.122H13.08ZM12.986 30L14.924 36H21.077L23.015 30H12.986ZM29.878 13.08L36 15V21L29.878 22.92V13.08ZM6 12.986L0 14.924V21.077L6 23.015V12.986ZM22.92 6.122L28.606 3.151L32.849 7.394L29.878 13.08L22.92 6.122ZM5.967 22.942L3.1 28.553L7.447 32.9L13.058 30.03L5.967 22.942ZM29.878 22.92L32.849 28.606L28.606 32.849L22.92 29.878L29.878 22.92ZM13.058 5.967L7.447 3.1L3.1 7.447L5.97 13.058L13.058 5.967Z" fill="#DFDFDF"/>
<path fill-rule="evenodd" clip-rule="evenodd" d="M18 31C10.8203 31 5 25.1797 5 18C5 10.8203 10.8203 5 18 5C25.1797 5 31 10.8203 31 18C31 25.1797 25.1797 31 18 31ZM18 13.125C15.3076 13.125 13.125 15.3076 13.125 18C13.125 20.6924 15.3076 22.875 18 22.875C20.6924 22.875 22.875 20.6924 22.875 18C22.875 15.3076 20.6924 13.125 18 13.125Z" fill="#595959"/>
<path fill-rule="evenodd" clip-rule="evenodd" d="M18.0002 25.0002C15.169 25.0002 12.6165 23.2947 11.533 20.679C10.4496 18.0633 11.0485 15.0524 13.0505 13.0505C15.0524 11.0485 18.0633 10.4496 20.679 11.533C23.2947 12.6165 25.0002 15.169 25.0002 18.0002C25.0002 21.8662 21.8662 25.0002 18.0002 25.0002ZM18.0002 15.0002C16.3433 15.0002 15.0002 16.3433 15.0002 18.0002C15.0002 19.6571 16.3433 21.0002 18.0002 21.0002C19.6571 21.0002 21.0002 19.6571 21.0002 18.0002C21.0002 16.3433 19.6571 15.0002 18.0002 15.0002Z" fill="#DFDFDF"/>
</g>
<defs>
<clipPath id="clip0_256_366">
<rect width="36" height="36" fill="white"/>
</clipPath>
</defs>
</svg>
