<svg width="45" height="23" viewBox="0 0 45 23" fill="none" xmlns="http://www.w3.org/2000/svg">
<g clip-path="url(#clip0_256_375)">
<path fill-rule="evenodd" clip-rule="evenodd" d="M33.55 23C28.4079 22.9871 24.038 19.2383 23.243 14.158H20.757C19.8495 19.632 14.8216 23.4421 9.30614 22.8353C3.79065 22.2286 -0.288715 17.4166 0.0154679 11.8762C0.31965 6.33577 4.90128 1.99931 10.45 2H33.55C39.349 2 44.05 6.70101 44.05 12.5C44.05 18.299 39.349 23 33.55 23Z" fill="#DFDFDF"/>
<path fill-rule="evenodd" clip-rule="evenodd" d="M15 0H29V2H15V0ZM15 14H12V17H9V14H6V11H9V8H12V11H15V14ZM34 5C35.1046 5 36 5.89543 36 7C36 8.10457 35.1046 9 34 9C32.8954 9 32 8.10457 32 7C32 5.89543 32.8954 5 34 5ZM34 15C35.1046 15 36 15.8954 36 17C36 18.1046 35.1046 19 34 19C32.8954 19 32 18.1046 32 17C32 15.8954 32.8954 15 34 15ZM39 10C40.1046 10 41 10.8954 41 12C41 13.1046 40.1046 14 39 14C37.8954 14 37 13.1046 37 12C37 10.8954 37.8954 10 39 10ZM29 10C30.1046 10 31 10.8954 31 12C31 13.1046 30.1046 14 29 14C27.8954 14 27 13.1046 27 12C27 10.8954 27.8954 10 29 10Z" fill="#595959"/>
</g>
<defs>
<clipPath id="clip0_256_375">
<rect width="45" height="23" fill="white"/>
</clipPath>
</defs>
</svg>
