<svg width="34" height="34" viewBox="0 0 34 34" fill="none" xmlns="http://www.w3.org/2000/svg">
<g clip-path="url(#clip0_256_383)">
<path fill-rule="evenodd" clip-rule="evenodd" d="M33.9999 21.6001C32.1035 27.4179 27.3778 31.8714 21.458 33.4199C15.5381 34.9684 9.23704 33.3992 4.73486 29.2551C0.638248 24.7734 -0.935194 18.5347 0.546023 12.6462C2.02724 6.75777 6.3653 2.00604 12.0949 -0.00390625C12.4683 0.829099 13.0479 1.55321 13.7789 2.10009C14.084 2.50299 14.4403 2.86437 14.8389 3.17509C14.4149 4.28009 13.1959 8.07009 15.7389 9.54509C16.2729 10.5031 17.3549 11.2051 19.3519 11.2451C19.3719 12.6261 19.6769 14.8741 21.3209 15.8691C22.2459 17.3511 24.1319 18.2341 27.9209 16.6201C28.1193 18.047 28.8648 19.3408 29.9999 20.2281C30.8216 21.5979 32.5103 22.1771 33.9999 21.6001Z" fill="#DFDFDF"/>
<path fill-rule="evenodd" clip-rule="evenodd" d="M6.5 18C7.32843 18 8 18.6716 8 19.5C8 20.3284 7.32843 21 6.5 21C5.67157 21 5 20.3284 5 19.5C5 18.6716 5.67157 18 6.5 18ZM15.5 27C16.3284 27 17 27.6716 17 28.5C17 29.3284 16.3284 30 15.5 30C14.6716 30 14 29.3284 14 28.5C14 27.6716 14.6716 27 15.5 27ZM15.5 17C16.3284 17 17 17.6716 17 18.5C17 19.3284 16.3284 20 15.5 20C14.6716 20 14 19.3284 14 18.5C14 17.6716 14.6716 17 15.5 17ZM9.5 7C10.3284 7 11 7.67157 11 8.5C11 9.32843 10.3284 10 9.5 10C8.67157 10 8 9.32843 8 8.5C8 7.67157 8.67157 7 9.5 7ZM26.5 22C27.3284 22 28 22.6716 28 23.5C28 24.3284 27.3284 25 26.5 25C25.6716 25 25 24.3284 25 23.5C25 22.6716 25.6716 22 26.5 22Z" fill="#595959"/>
</g>
<defs>
<clipPath id="clip0_256_383">
<rect width="34" height="34" fill="white"/>
</clipPath>
</defs>
</svg>
