<svg width="34" height="29" viewBox="0 0 34 29" fill="none" xmlns="http://www.w3.org/2000/svg">
<g clip-path="url(#clip0_263_56)">
<rect x="8" y="1.40332" width="3" height="30.8627" transform="rotate(-27.8901 8 1.40332)" fill="#595959"/>
<rect x="8" y="1.40332" width="3" height="30.8627" transform="rotate(-27.8901 8 1.40332)" fill="#595959"/>
<path fill-rule="evenodd" clip-rule="evenodd" d="M17 4C28.267 4 34 15.5 34 15.5C34 15.5 28.267 26 17 26C5.733 26 0 15.5 0 15.5C0 15.5 5.733 4 17 4Z" fill="#DFDFDF"/>
<path d="M17 21C20.3137 21 23 18.3137 23 15C23 11.6863 20.3137 9 17 9C13.6863 9 11 11.6863 11 15C11 18.3137 13.6863 21 17 21Z" fill="#595959"/>
<mask id="mask0_263_56" style="mask-type:alpha" maskUnits="userSpaceOnUse" x="8" y="0" width="18" height="29">
<rect x="8" y="1.40332" width="3" height="30.8627" transform="rotate(-27.8901 8 1.40332)" fill="#595959"/>
</mask>
<g mask="url(#mask0_263_56)">
<circle cx="17" cy="15" r="6" fill="#D9D9D9"/>
</g>
</g>
<defs>
<clipPath id="clip0_263_56">
<rect width="34" height="28.68" fill="white"/>
</clipPath>
</defs>
</svg>
