<svg width="24" height="34" viewBox="0 0 24 34" fill="none" xmlns="http://www.w3.org/2000/svg">
<g clip-path="url(#clip0_256_458)">
<path fill-rule="evenodd" clip-rule="evenodd" d="M23.5552 25.1C22.0019 30.9449 16.3355 34.7152 10.3443 33.8904C4.35299 33.0655 -0.0837263 27.9042 0.000245465 21.857C-0.0232193 20.8605 0.141319 19.8685 0.485245 18.933C1.64325 11.595 8.78525 11.063 4.80025 0C4.80025 0 11.4502 1.727 12.8002 12.143C12.8002 12.143 17.7192 11.98 14.4002 4.857C19.6712 8.24749 23.1826 13.7863 24.0002 20C24.0275 21.7108 23.8783 23.4198 23.5552 25.1Z" fill="#DFDFDF"/>
<path fill-rule="evenodd" clip-rule="evenodd" d="M19.0001 26.5001C18.9379 30.5023 15.7439 33.7503 11.7433 33.8796C7.74278 34.0089 4.3457 30.9739 4.02513 26.9841L4.00013 27.0001C4.00013 27.0001 3.92513 23.7281 4.00013 23.0001C4.68413 16.3891 6.60013 13.4371 9.00013 9.00014C9.06713 6.36114 7.88513 16.2731 14.0001 19.0001C17.0167 20.2752 18.9834 23.2252 19.0001 26.5001Z" fill="#595959"/>
</g>
<defs>
<clipPath id="clip0_256_458">
<rect width="24" height="34" fill="white"/>
</clipPath>
</defs>
</svg>
