<svg width="33" height="37" viewBox="0 0 33 37" fill="none" xmlns="http://www.w3.org/2000/svg">
<g clip-path="url(#clip0_256_482)">
<path fill-rule="evenodd" clip-rule="evenodd" d="M1 14H33V37H1V14ZM4 5C3.9661 2.27334 6.14835 0.0351243 8.875 0C10.741 0 11.075 0.489 13 2L17 5L21 2C22.711 0.379 23.259 0 25.125 0C27.8516 0.0351243 30.0339 2.27334 30 5C30.0339 7.72666 27.8516 9.96488 25.125 10H8.875C6.14835 9.96488 3.9661 7.72666 4 5ZM25 7C26.1046 7 27 6.10457 27 5C27 3.89543 26.1046 3 25 3C24.2741 3.08501 23.6235 3.488 23.224 4.1L20 7H25ZM10.776 4.1C10.3765 3.488 9.72588 3.08501 9 3C7.89543 3 7 3.89543 7 5C7 6.10457 7.89543 7 9 7H14L10.776 4.1Z" fill="#DFDFDF"/>
<path fill-rule="evenodd" clip-rule="evenodd" d="M8.87523 10H32.9902V14H19.0002V37H15.0002V14H0.990234V10H8.87523Z" fill="#595959"/>
</g>
<defs>
<clipPath id="clip0_256_482">
<rect width="33" height="37" fill="white"/>
</clipPath>
</defs>
</svg>
