<svg width="41" height="29" viewBox="0 0 41 29" fill="none" xmlns="http://www.w3.org/2000/svg">
<g clip-path="url(#clip0_256_514)">
<path fill-rule="evenodd" clip-rule="evenodd" d="M32.214 18.7862C33.7415 21.7314 32.9916 25.3443 30.4183 27.4384C27.845 29.5325 24.155 29.5325 21.5817 27.4384C19.0084 25.3443 18.2585 21.7314 19.786 18.7862L14.766 13.7662C12.8498 14.2769 10.8065 13.9416 9.154 12.8452L3 19.0002L0 16.0002L6.477 9.5232C5.24687 6.34937 6.47815 2.75071 9.3947 0.995665C12.3112 -0.75938 16.0675 -0.161998 18.2957 2.41124C20.5239 4.98449 20.578 8.78758 18.424 11.4232L22.787 15.7862C24.8016 14.7384 27.2004 14.7384 29.215 15.7862L38 7.0002L41 10.0002L32.214 18.7862Z" fill="#DFDFDF"/>
<path fill-rule="evenodd" clip-rule="evenodd" d="M13 4C14.6569 4 16 5.34315 16 7C16 8.65685 14.6569 10 13 10C11.3431 10 10 8.65685 10 7C10 5.34315 11.3431 4 13 4ZM26 19C27.6569 19 29 20.3431 29 22C29 23.6569 27.6569 25 26 25C24.3431 25 23 23.6569 23 22C23 20.3431 24.3431 19 26 19Z" fill="#595959"/>
</g>
<defs>
<clipPath id="clip0_256_514">
<rect width="41" height="29" fill="white"/>
</clipPath>
</defs>
</svg>
