<svg width="34" height="36" viewBox="0 0 34 36" fill="none" xmlns="http://www.w3.org/2000/svg">
<g clip-path="url(#clip0_256_577)">
<path fill-rule="evenodd" clip-rule="evenodd" d="M34 19V36H0V14H4V8L12 0V14H17V19H24.326L26.714 7.2H30.357L32.745 19H34Z" fill="#DFDFDF"/>
<path fill-rule="evenodd" clip-rule="evenodd" d="M27 34V29H32V34H27ZM27 22H32V27H27V22ZM19.188 6C18.188 4.323 20.821 0.692 25.312 2.471C26.4499 3.13945 27.6918 3.61266 28.986 3.871V6C27.2925 5.92481 25.6291 5.5256 24.086 4.824C22.3738 4.07955 20.3756 4.55932 19.188 6ZM10 31H15V36H10V31ZM10 24H15V29H10V24ZM10 17H15V22H10V17ZM4 8L12 0V3L4 11V8ZM7 22H2V17H7V22ZM7 29H2V24H7V29ZM7 36H2V31H7V36ZM24 27H19V22H24V27ZM24 34H19V29H24V34Z" fill="#595959"/>
</g>
<defs>
<clipPath id="clip0_256_577">
<rect width="34" height="36" fill="white"/>
</clipPath>
</defs>
</svg>
