<svg width="38" height="19" viewBox="0 0 38 19" fill="none" xmlns="http://www.w3.org/2000/svg">
<g clip-path="url(#clip0_256_585)">
<path fill-rule="evenodd" clip-rule="evenodd" d="M28.9521 18.9999C26.1277 19.0031 23.4642 17.6861 21.7521 15.4399L16.2881 9.99985L21.7571 4.55985C24.3056 1.16343 28.8772 0.00323761 32.7369 1.77337C36.5966 3.54351 38.7 7.76502 37.7888 11.9124C36.8776 16.0597 33.1983 19.0107 28.9521 18.9999ZM28.8521 4.59985C27.1342 4.59387 25.51 5.38234 24.4521 6.73585L21.1121 9.99985L24.4541 13.2639C25.5119 14.6175 27.1362 15.406 28.8541 15.3999C30.7833 15.3995 32.5658 14.3699 33.5301 12.699C34.4944 11.028 34.494 8.96957 33.5291 7.29899C32.5642 5.6284 30.7813 4.59949 28.8521 4.59985Z" fill="#595959"/>
<path fill-rule="evenodd" clip-rule="evenodd" d="M16.2431 15.4401C13.9071 18.5188 9.86635 19.7626 6.20344 18.5303C2.54052 17.298 0.0732422 13.8647 0.0732422 10.0001C0.0732422 6.13542 2.54052 2.7022 6.20344 1.46988C9.86635 0.237572 13.9071 1.48131 16.2431 4.56008L21.7121 10.0001L16.2431 15.4401ZM13.5431 6.74008C12.4851 5.38657 10.861 4.5981 9.14307 4.60408C6.16073 4.60408 3.74307 7.02174 3.74307 10.0041C3.74307 12.9864 6.16073 15.4041 9.14307 15.4041C10.861 15.4102 12.4852 14.6217 13.5431 13.2681L16.8881 10.0001L13.5431 6.74008Z" fill="#DFDFDF"/>
</g>
<defs>
<clipPath id="clip0_256_585">
<rect width="38" height="19" fill="white"/>
</clipPath>
</defs>
</svg>
