<svg width="26" height="36" viewBox="0 0 26 36" fill="none" xmlns="http://www.w3.org/2000/svg">
<g clip-path="url(#clip0_256_618)">
<path d="M26 13H0V36H26V13Z" fill="#DFDFDF"/>
<path fill-rule="evenodd" clip-rule="evenodd" d="M20 13V10C19.8888 6.18102 16.819 3.1112 13 3C9.416 3 6 6.863 6 10V13H3V10C3.03707 4.49258 7.49258 0.0370736 13 0C19.188 0 23 5.656 23 10V13H20ZM0 34H26V36H0V34ZM13 19C15.2091 19 17 20.7909 17 23C17 25.2091 15.2091 27 13 27C10.7909 27 9 25.2091 9 23C9 20.7909 10.7909 19 13 19ZM11 23H15V31H11V23Z" fill="#595959"/>
</g>
<defs>
<clipPath id="clip0_256_618">
<rect width="26" height="36" fill="white"/>
</clipPath>
</defs>
</svg>
