<svg width="30" height="36" viewBox="0 0 30 36" fill="none" xmlns="http://www.w3.org/2000/svg">
<g clip-path="url(#clip0_256_705)">
<path fill-rule="evenodd" clip-rule="evenodd" d="M6.51816 17.936C6.49309 20.2105 7.37268 22.4019 8.96339 24.0278C10.5541 25.6538 12.7256 26.5812 15.0002 26.606V28.94L14.0562 33.226C6.07318 32.6307 -0.0768312 25.9408 0.000156421 17.936C-0.133675 10.712 4.91698 4.42564 12.0002 3H14.0002L14.0482 9.323C9.71558 9.86608 6.47765 13.5697 6.51816 17.936Z" fill="#595959"/>
<path fill-rule="evenodd" clip-rule="evenodd" d="M14.9999 33.2751C14.6809 33.2751 14.3699 33.2461 14.0559 33.2261L14.9999 28.9401V26.6061C19.7157 26.5048 23.4857 22.6529 23.4857 17.9361C23.4857 13.2193 19.7157 9.36739 14.9999 9.2661C14.6828 9.26738 14.3659 9.28675 14.0509 9.3241L13.9999 7.0001C13.9999 7.0001 13.3419 2.6001 14.9999 2.6001C23.3763 2.69457 30.091 9.55973 29.9999 17.9361C30.0927 26.3136 23.3775 33.1806 14.9999 33.2751Z" fill="#DFDFDF"/>
<path fill-rule="evenodd" clip-rule="evenodd" d="M17.005 36V22L10 29L17.005 36Z" fill="#DFDFDF"/>
<path fill-rule="evenodd" clip-rule="evenodd" d="M12.9893 0V13L19.0133 6.506L12.9893 0Z" fill="#595959"/>
</g>
<defs>
<clipPath id="clip0_256_705">
<rect width="30" height="36" fill="white"/>
</clipPath>
</defs>
</svg>
