<svg width="40" height="40" viewBox="0 0 40 40" fill="none" xmlns="http://www.w3.org/2000/svg">
<g clip-path="url(#clip0_256_715)">
<path fill-rule="evenodd" clip-rule="evenodd" d="M25.6242 39.7848L21.3812 28.4718L29.1592 20.6938L31.2342 29.4288L25.6242 39.7848ZM0.168207 14.3288L10.5252 8.71777L19.2602 10.7928L11.4822 18.5708L0.168207 14.3288ZM1.62421 30.9908C3.54421 26.0618 6.86421 28.7168 6.86421 28.7168L9.08621 30.9338L11.2862 33.1268C11.2862 33.1268 13.9132 36.4068 8.99121 38.3398C7.50065 38.7418 5.94938 38.8692 4.41321 38.7158C3.59821 38.6398 0.876207 40.3158 0.0662073 39.9378C-0.323793 39.1238 1.35421 36.4008 1.27321 35.5828C1.10895 34.0435 1.22791 32.4872 1.62421 30.9908Z" fill="#DFDFDF"/>
<path fill-rule="evenodd" clip-rule="evenodd" d="M6.70004 20.5368C25.323 2.12184 39.983 -0.0141602 39.983 -0.0141602C39.983 -0.0141602 37.823 14.4838 19.2 32.8998C19.2 32.8998 14.359 38.2268 7.82004 31.7598C4.54568 28.8995 4.05553 23.9879 6.70004 20.5368Z" fill="#595959"/>
<path fill-rule="evenodd" clip-rule="evenodd" d="M23.6463 16.3359C25.3503 18.0978 25.3106 20.9054 23.5573 22.6183C21.804 24.3312 18.9962 24.3055 17.2745 22.5609C15.5528 20.8162 15.5643 18.0083 17.3003 16.2779C19.0741 14.555 21.9042 14.5808 23.6463 16.3359Z" fill="#DFDFDF"/>
</g>
<defs>
<clipPath id="clip0_256_715">
<rect width="40" height="40" fill="white"/>
</clipPath>
</defs>
</svg>
