<svg width="31" height="32" viewBox="0 0 31 32" fill="none" xmlns="http://www.w3.org/2000/svg">
<g clip-path="url(#clip0_256_732)">
<path d="M17.2828 20.6108L27.8888 31.2178L30.7168 28.3898L20.1108 17.7828L17.2828 20.6108ZM14.8288 16.2428L11.9998 13.4138L9.17181 16.2418L7.75781 14.8278L10.5858 11.9998L7.75781 9.17181L9.17181 7.75781L11.9998 10.5858L14.8278 7.75781L16.2418 9.17181L13.4138 11.9998L16.2418 14.8278L14.8288 16.2428Z" fill="#595959"/>
<path d="M12 24C5.37258 24 0 18.6274 0 12C0 5.37258 5.37258 0 12 0C18.6274 0 24 5.37258 24 12C24 15.1826 22.7357 18.2348 20.4853 20.4853C18.2348 22.7357 15.1826 24 12 24ZM12 4C7.58172 4 4 7.58172 4 12C4 16.4183 7.58172 20 12 20C16.4183 20 20 16.4183 20 12C20 9.87827 19.1571 7.84344 17.6569 6.34315C16.1566 4.84285 14.1217 4 12 4Z" fill="#DFDFDF"/>
</g>
<defs>
<clipPath id="clip0_256_732">
<rect width="31" height="32" fill="white"/>
</clipPath>
</defs>
</svg>
