<svg width="30" height="36" viewBox="0 0 30 36" fill="none" xmlns="http://www.w3.org/2000/svg">
<g clip-path="url(#clip0_256_749)">
<path d="M20.9538 9.21111L7.81778 16.7601L5.75178 14.1901L18.8888 6.64111L20.9538 9.21111ZM20.8598 26.7721L7.63178 18.7201L5.55078 21.5281L18.7798 29.5801L20.8598 26.7721Z" fill="#595959"/>
<path d="M6 12C9.31371 12 12 14.6863 12 18C12 21.3137 9.31371 24 6 24C2.68629 24 0 21.3137 0 18C0 14.6863 2.68629 12 6 12ZM24 0C27.3137 0 30 2.68629 30 6C30 9.31371 27.3137 12 24 12C20.6863 12 18 9.31371 18 6C18 2.68629 20.6863 0 24 0ZM24 24C27.3137 24 30 26.6863 30 30C30 33.3137 27.3137 36 24 36C20.6863 36 18 33.3137 18 30C18 26.6863 20.6863 24 24 24Z" fill="#DFDFDF"/>
</g>
<defs>
<clipPath id="clip0_256_749">
<rect width="30" height="36" fill="white"/>
</clipPath>
</defs>
</svg>
