<svg width="40" height="27" viewBox="0 0 40 27" fill="none" xmlns="http://www.w3.org/2000/svg">
<g clip-path="url(#clip0_256_74)">
<path fill-rule="evenodd" clip-rule="evenodd" d="M0 0V22.012H25.994V0H0Z" fill="#DFDFDF"/>
<path d="M25.9941 6.01416H34.3201L40.0001 12.0142V22.0142H25.9941V6.01416Z" fill="#595959"/>
<path d="M8 27C10.7614 27 13 24.7614 13 22C13 19.2386 10.7614 17 8 17C5.23858 17 3 19.2386 3 22C3 24.7614 5.23858 27 8 27Z" fill="#595959"/>
<path d="M33 27C35.7614 27 38 24.7614 38 22C38 19.2386 35.7614 17 33 17C30.2386 17 28 19.2386 28 22C28 24.7614 30.2386 27 33 27Z" fill="#DFDFDF"/>
</g>
<defs>
<clipPath id="clip0_256_74">
<rect width="40" height="27" fill="white"/>
</clipPath>
</defs>
</svg>
